<?xml version="1.0" standalone="no"?>
<!DOCTYPE svg PUBLIC "-//W3C//DTD SVG 20010904//EN"
 "http://www.w3.org/TR/2001/REC-SVG-20010904/DTD/svg10.dtd">
<svg version="1.0" xmlns="http://www.w3.org/2000/svg"
 width="3333.000000pt" height="3333.000000pt" viewBox="0 0 3333.000000 3333.000000"
 preserveAspectRatio="xMidYMid meet">
<metadata>
Created by potrace 1.14, written by Peter Selinger 2001-2017
</metadata>
<g transform="translate(0.000000,3333.000000) scale(0.100000,-0.100000)"
fill="#000000" stroke="none">
<path d="M16105 28910 c-1944 -112 -3763 -762 -5324 -1900 -638 -466 -1271
-1061 -1781 -1675 -910 -1097 -1576 -2372 -1944 -3725 -80 -297 -133 -531
-190 -840 -112 -617 -156 -1120 -156 -1795 0 -530 23 -879 90 -1365 27 -197
37 -261 55 -360 9 -47 20 -107 25 -135 75 -428 275 -1149 439 -1585 133 -351
265 -655 423 -973 879 -1770 2260 -3233 3988 -4227 155 -89 522 -281 527 -276
2 1 32 194 68 427 67 443 79 525 95 624 9 51 161 1049 245 1605 26 167 37 238
55 352 16 103 69 448 79 518 5 36 37 245 71 465 34 220 70 456 80 525 23 159
147 965 160 1045 5 33 26 166 45 295 20 129 49 321 65 425 16 105 34 224 40
265 7 41 15 100 20 130 5 30 52 339 105 685 53 347 100 655 105 685 5 30 13
89 19 130 15 100 51 336 81 523 5 34 26 168 45 297 19 129 39 260 44 290 6 30
33 210 61 400 28 190 55 353 58 362 4 11 56 -140 140 -410 74 -235 145 -463
159 -507 13 -44 33 -107 43 -140 10 -33 77 -249 150 -480 72 -231 142 -454
155 -495 13 -41 103 -329 200 -640 97 -311 187 -599 200 -640 22 -71 263 -843
556 -1780 112 -357 191 -610 294 -940 13 -41 83 -264 155 -495 182 -580 175
-550 195 -825 14 -205 28 -394 75 -1020 10 -139 33 -436 50 -665 6 -71 21
-283 35 -470 14 -187 29 -396 35 -465 5 -69 17 -219 25 -335 26 -356 44 -594
55 -735 9 -117 33 -440 70 -930 5 -74 17 -225 25 -335 17 -230 26 -343 60
-805 53 -716 75 -1010 85 -1135 20 -265 40 -534 50 -665 6 -74 17 -223 25
-330 8 -107 17 -240 21 -295 12 -165 19 -158 32 31 7 98 19 267 27 374 33 432
42 561 65 875 5 77 19 262 30 410 36 490 37 494 70 968 9 128 22 300 50 682 5
72 19 256 30 410 18 252 27 370 60 820 14 187 29 400 40 550 13 182 28 387 45
615 17 228 32 433 45 615 5 72 14 193 19 270 36 487 62 838 71 960 5 77 14
199 19 270 6 72 18 236 27 365 l17 235 304 980 c167 539 312 1007 323 1040 10
33 71 229 135 435 64 206 138 445 165 530 27 85 87 279 134 430 46 151 98 318
114 370 17 52 47 149 67 215 20 66 40 131 45 145 5 14 28 86 51 160 22 74 52
171 66 215 13 44 33 107 43 140 10 33 30 96 43 140 68 216 225 723 297 955 23
74 96 308 162 520 130 416 143 459 212 684 25 82 47 151 49 152 2 2 9 -38 16
-89 7 -50 16 -117 21 -147 5 -30 21 -129 35 -220 14 -91 30 -192 35 -225 5
-33 32 -208 60 -390 28 -181 55 -357 60 -390 5 -33 16 -105 25 -160 8 -55 20
-128 25 -162 6 -35 14 -91 20 -125 5 -35 16 -108 25 -163 9 -55 20 -127 25
-160 5 -33 37 -238 70 -455 60 -393 81 -529 100 -648 6 -34 15 -91 20 -127 6
-36 14 -93 20 -127 5 -35 44 -283 85 -553 41 -269 80 -517 85 -550 5 -33 16
-105 25 -160 14 -95 22 -143 45 -287 5 -35 44 -283 85 -553 41 -269 80 -518
85 -552 6 -35 15 -92 20 -128 6 -36 15 -93 20 -127 6 -35 44 -283 85 -553 42
-269 85 -548 96 -620 11 -71 27 -173 35 -225 8 -52 19 -122 24 -155 6 -33 44
-280 85 -550 41 -269 79 -517 85 -550 5 -33 21 -134 35 -225 14 -91 32 -205
40 -255 8 -49 26 -169 41 -265 14 -96 28 -177 30 -179 1 -2 65 29 141 69 789
414 1429 855 2086 1439 166 147 578 555 729 722 1349 1494 2197 3302 2482
5289 100 691 122 1524 60 2240 -126 1478 -569 2885 -1307 4150 -343 588 -772
1176 -1222 1675 -169 188 -623 635 -810 799 -1183 1035 -2530 1757 -4020 2155
-574 153 -1157 252 -1810 307 -222 18 -1063 27 -1300 14z m1031 -1340 c1492
-86 2907 -544 4149 -1342 1656 -1065 2905 -2677 3514 -4538 210 -642 329
-1232 398 -1975 25 -273 25 -1104 0 -1385 -104 -1141 -381 -2137 -864 -3105
-406 -812 -909 -1522 -1528 -2154 -162 -166 -486 -474 -491 -468 -2 1 -7 38
-13 82 -6 44 -33 247 -61 450 -28 204 -55 402 -60 440 -23 170 -32 237 -70
515 -22 162 -45 327 -50 365 -5 39 -32 237 -60 440 -28 204 -55 404 -61 445
-5 41 -14 104 -18 140 -58 427 -73 539 -85 625 -8 55 -19 136 -25 180 -6 44
-18 127 -26 185 -8 58 -21 157 -29 220 -9 63 -32 232 -51 375 -74 542 -136
993 -145 1060 -12 87 -112 826 -180 1320 -28 204 -55 403 -60 443 -18 134 -29
215 -80 585 -27 202 -73 532 -100 735 -53 386 -63 460 -79 582 -6 41 -33 242
-61 445 -28 204 -55 402 -60 440 -5 39 -14 102 -19 140 -6 39 -17 122 -25 185
-9 63 -32 232 -51 375 -80 585 -136 994 -145 1060 -35 262 -61 452 -65 463 -4
10 -169 12 -802 10 l-797 -3 -19 -60 c-32 -104 -82 -270 -192 -630 -20 -66
-52 -172 -72 -235 -19 -63 -50 -164 -68 -225 -18 -60 -50 -164 -70 -230 -20
-66 -53 -172 -72 -235 -62 -206 -70 -234 -106 -350 -29 -95 -159 -521 -472
-1545 -19 -60 -57 -186 -85 -280 -28 -93 -85 -280 -127 -415 -67 -220 -107
-352 -163 -535 -10 -33 -34 -112 -53 -175 -19 -63 -52 -169 -72 -235 -20 -66
-52 -172 -72 -235 -19 -63 -50 -164 -68 -225 -19 -60 -65 -213 -104 -340 -445
-1462 -557 -1825 -561 -1825 -3 0 -32 87 -64 193 -33 105 -67 217 -77 247 -9
30 -49 161 -89 290 -39 129 -87 285 -105 345 -79 255 -204 664 -218 710 -18
59 -68 225 -130 425 -25 80 -66 215 -92 300 -25 85 -50 166 -55 180 -5 14 -52
167 -105 340 -53 173 -112 365 -130 425 -42 135 -181 589 -276 900 -39 127
-81 264 -94 305 -13 41 -58 188 -100 325 -42 138 -104 338 -137 445 -33 107
-68 222 -78 255 -10 33 -59 195 -110 360 -224 727 -259 843 -273 890 -14 48
-63 207 -112 365 -57 185 -145 473 -145 476 0 2 -360 4 -800 4 l-799 0 -6 -32
c-3 -18 -41 -303 -85 -633 -44 -330 -84 -629 -89 -665 -13 -86 -15 -103 -136
-1010 -58 -432 -110 -816 -115 -855 -6 -38 -159 -1177 -340 -2530 -181 -1353
-334 -2491 -340 -2530 -5 -38 -53 -389 -105 -780 -52 -390 -99 -741 -104 -780
-5 -38 -15 -106 -20 -150 -6 -44 -18 -127 -26 -185 -8 -58 -71 -528 -140
-1045 -69 -517 -131 -975 -138 -1018 l-12 -77 -155 143 c-1072 993 -1885 2263
-2330 3642 -50 157 -133 446 -163 575 -76 314 -112 497 -153 765 -87 577 -118
1275 -79 1845 79 1193 376 2276 910 3325 646 1267 1600 2357 2770 3162 1315
905 2816 1412 4435 1496 149 8 729 6 886 -3z"/>
</g>
</svg>
