<?xml version="1.0" encoding="UTF-8"?>
<svg id="Mouliinaa_Logo" data-name="Mouliinaa Logo" xmlns="http://www.w3.org/2000/svg" viewBox="0 0 5000 6160">
  <defs>
    <style>
      .cls-1 {
        fill: #fff;
        stroke-width: 0px;
      }
    </style>
  </defs>
  <path class="cls-1" d="m2500,0C1119.29,0,0,1119.29,0,2500c0,982.78,567.1,1833.09,1391.91,2241.6l26.54-172.54,363.55-2364.06,558,1791,160,2164,160-2164,558-1791,363.55,2364.06,26.54,172.54c824.81-408.51,1391.91-1258.82,1391.91-2241.6C5000,1119.29,3880.71,0,2500,0Zm1450,4103.09l-450-3095.09h-400l-600,1962-600-1962h-400l-450,3090.38c-446.93-393.98-697-970.75-697-1613.38,0-1187.41,962.59-2150,2150-2150s2150,962.59,2150,2150c0,645.19-252.96,1224.01-703,1618.09Z"/>
</svg>